# Blender v2.93.0 OBJ File: 'kk1.blend'
# www.blender.org
mtllib puerta.mtl
o Puerta.002_Cube.001
v -0.389046 2.423103 -0.010911
v 0.700038 -2.423102 -2.376099
v 0.700038 2.423103 -2.376094
v -0.700036 2.423103 -0.059401
v -0.389046 -2.423105 -0.010914
v 0.389045 2.423103 -2.424586
v -0.700036 -2.423105 -0.059402
v 0.389045 -2.423102 -2.424589
vn 0.9083 -0.0000 0.4183
vn -0.1541 -0.0000 0.9881
vn -0.9083 0.0000 -0.4183
vn 0.0000 -1.0000 -0.0000
vn -0.0000 1.0000 0.0000
vn 0.1541 0.0000 -0.9881
usemtl Cristal.001
s 1
f 1//1 2//1 3//1
f 4//2 5//2 1//2
f 6//3 7//3 4//3
f 8//4 5//4 7//4
f 1//5 6//5 4//5
f 6//6 2//6 8//6
f 1//1 5//1 2//1
f 4//2 7//2 5//2
f 6//3 8//3 7//3
f 8//4 2//4 5//4
f 1//5 3//5 6//5
f 6//6 3//6 2//6
